<mxfile host="app.diagrams.net" modified="2023-06-10T23:24:51.984Z" agent="Mozilla/5.0 (Windows NT 10.0; Win64; x64) AppleWebKit/537.36 (KHTML, like Gecko) Chrome/114.0.0.0 Safari/537.36" etag="gUhIW_pCKRhE1dOhOn9O" version="21.3.8" type="github">
  <diagram id="C5RBs43oDa-KdzZeNtuy" name="Page-1">
    <mxGraphModel dx="1094" dy="612" grid="1" gridSize="10" guides="1" tooltips="1" connect="1" arrows="1" fold="1" page="1" pageScale="1" pageWidth="827" pageHeight="1169" math="0" shadow="0">
      <root>
        <mxCell id="WIyWlLk6GJQsqaUBKTNV-0" />
        <mxCell id="WIyWlLk6GJQsqaUBKTNV-1" parent="WIyWlLk6GJQsqaUBKTNV-0" />
        <mxCell id="zkfFHV4jXpPFQw0GAbJ--0" value="Hospital" style="swimlane;fontStyle=2;align=center;verticalAlign=top;childLayout=stackLayout;horizontal=1;startSize=26;horizontalStack=0;resizeParent=1;resizeLast=0;collapsible=1;marginBottom=0;rounded=0;shadow=0;strokeWidth=1;" parent="WIyWlLk6GJQsqaUBKTNV-1" vertex="1">
          <mxGeometry x="150" y="250" width="260" height="420" as="geometry">
            <mxRectangle x="230" y="140" width="160" height="26" as="alternateBounds" />
          </mxGeometry>
        </mxCell>
        <mxCell id="zkfFHV4jXpPFQw0GAbJ--1" value="-nome: String" style="text;align=left;verticalAlign=top;spacingLeft=4;spacingRight=4;overflow=hidden;rotatable=0;points=[[0,0.5],[1,0.5]];portConstraint=eastwest;" parent="zkfFHV4jXpPFQw0GAbJ--0" vertex="1">
          <mxGeometry y="26" width="260" height="26" as="geometry" />
        </mxCell>
        <mxCell id="zkfFHV4jXpPFQw0GAbJ--2" value="-telefone: String" style="text;align=left;verticalAlign=top;spacingLeft=4;spacingRight=4;overflow=hidden;rotatable=0;points=[[0,0.5],[1,0.5]];portConstraint=eastwest;rounded=0;shadow=0;html=0;" parent="zkfFHV4jXpPFQw0GAbJ--0" vertex="1">
          <mxGeometry y="52" width="260" height="26" as="geometry" />
        </mxCell>
        <mxCell id="zkfFHV4jXpPFQw0GAbJ--3" value="-email: String&#xa;- endereco: String&#xa;-listafuncionarios:  HashMap &lt;String, ProfissionalSaude&gt;&#xa;" style="text;align=left;verticalAlign=top;spacingLeft=4;spacingRight=4;overflow=hidden;rotatable=0;points=[[0,0.5],[1,0.5]];portConstraint=eastwest;rounded=0;shadow=0;html=0;" parent="zkfFHV4jXpPFQw0GAbJ--0" vertex="1">
          <mxGeometry y="78" width="260" height="52" as="geometry" />
        </mxCell>
        <mxCell id="-9V2bEK6rvMUXnRSOSfq-3" value="-cnpj: String" style="text;html=1;strokeColor=none;fillColor=none;align=center;verticalAlign=middle;whiteSpace=wrap;rounded=0;" vertex="1" parent="zkfFHV4jXpPFQw0GAbJ--0">
          <mxGeometry y="130" width="260" height="30" as="geometry" />
        </mxCell>
        <mxCell id="zkfFHV4jXpPFQw0GAbJ--4" value="" style="line;html=1;strokeWidth=1;align=left;verticalAlign=middle;spacingTop=-1;spacingLeft=3;spacingRight=3;rotatable=0;labelPosition=right;points=[];portConstraint=eastwest;" parent="zkfFHV4jXpPFQw0GAbJ--0" vertex="1">
          <mxGeometry y="160" width="260" height="170" as="geometry" />
        </mxCell>
        <mxCell id="-9V2bEK6rvMUXnRSOSfq-13" value="+Cadastro: boolean&lt;br&gt;+Remoção: boolean&lt;br&gt;+Buscar: ProfissionalSaude&lt;br&gt;+ListarFuncionarios: String;&lt;br&gt;+ListarMedicos:String&lt;br&gt;+Listar Enfermeiros;" style="text;html=1;strokeColor=none;fillColor=none;align=center;verticalAlign=middle;whiteSpace=wrap;rounded=0;" vertex="1" parent="zkfFHV4jXpPFQw0GAbJ--0">
          <mxGeometry y="330" width="260" height="90" as="geometry" />
        </mxCell>
        <mxCell id="-9V2bEK6rvMUXnRSOSfq-5" value="&amp;lt;&amp;lt;Interface&amp;gt;&amp;gt; Cadastrable" style="swimlane;whiteSpace=wrap;html=1;" vertex="1" parent="WIyWlLk6GJQsqaUBKTNV-1">
          <mxGeometry x="570" y="70" width="200" height="200" as="geometry" />
        </mxCell>
        <mxCell id="-9V2bEK6rvMUXnRSOSfq-8" value="+Remoção: boolean" style="text;html=1;strokeColor=none;fillColor=none;align=center;verticalAlign=middle;whiteSpace=wrap;rounded=0;" vertex="1" parent="-9V2bEK6rvMUXnRSOSfq-5">
          <mxGeometry x="10" y="90" width="60" height="30" as="geometry" />
        </mxCell>
        <mxCell id="-9V2bEK6rvMUXnRSOSfq-7" value="+Cadastro: boolean" style="text;html=1;align=center;verticalAlign=middle;resizable=0;points=[];autosize=1;strokeColor=none;fillColor=none;" vertex="1" parent="WIyWlLk6GJQsqaUBKTNV-1">
          <mxGeometry x="565" y="118" width="130" height="30" as="geometry" />
        </mxCell>
        <mxCell id="-9V2bEK6rvMUXnRSOSfq-11" value="" style="endArrow=none;dashed=1;html=1;dashPattern=1 3;strokeWidth=2;rounded=0;entryX=0.5;entryY=1;entryDx=0;entryDy=0;exitX=1;exitY=0.5;exitDx=0;exitDy=0;" edge="1" parent="WIyWlLk6GJQsqaUBKTNV-1" source="-9V2bEK6rvMUXnRSOSfq-3" target="-9V2bEK6rvMUXnRSOSfq-5">
          <mxGeometry width="50" height="50" relative="1" as="geometry">
            <mxPoint x="620" y="340" as="sourcePoint" />
            <mxPoint x="660" y="300" as="targetPoint" />
          </mxGeometry>
        </mxCell>
        <mxCell id="-9V2bEK6rvMUXnRSOSfq-19" value="ProfissionalSaude&amp;lt;abstract&amp;gt;" style="swimlane;whiteSpace=wrap;html=1;" vertex="1" parent="WIyWlLk6GJQsqaUBKTNV-1">
          <mxGeometry x="480" y="810" width="200" height="200" as="geometry" />
        </mxCell>
        <mxCell id="-9V2bEK6rvMUXnRSOSfq-30" value="-nome" style="text;html=1;strokeColor=none;fillColor=none;align=center;verticalAlign=middle;whiteSpace=wrap;rounded=0;" vertex="1" parent="-9V2bEK6rvMUXnRSOSfq-19">
          <mxGeometry x="10" y="30" width="60" height="30" as="geometry" />
        </mxCell>
        <mxCell id="-9V2bEK6rvMUXnRSOSfq-31" value="-registro: String" style="text;html=1;strokeColor=none;fillColor=none;align=center;verticalAlign=middle;whiteSpace=wrap;rounded=0;" vertex="1" parent="-9V2bEK6rvMUXnRSOSfq-19">
          <mxGeometry y="50" width="60" height="30" as="geometry" />
        </mxCell>
        <mxCell id="-9V2bEK6rvMUXnRSOSfq-33" value="profissao- string" style="text;html=1;strokeColor=none;fillColor=none;align=center;verticalAlign=middle;whiteSpace=wrap;rounded=0;" vertex="1" parent="-9V2bEK6rvMUXnRSOSfq-19">
          <mxGeometry x="10" y="80" width="60" height="30" as="geometry" />
        </mxCell>
        <mxCell id="-9V2bEK6rvMUXnRSOSfq-34" value="especialidade" style="text;html=1;strokeColor=none;fillColor=none;align=center;verticalAlign=middle;whiteSpace=wrap;rounded=0;" vertex="1" parent="-9V2bEK6rvMUXnRSOSfq-19">
          <mxGeometry x="10" y="110" width="60" height="30" as="geometry" />
        </mxCell>
        <mxCell id="-9V2bEK6rvMUXnRSOSfq-35" value="LocalTime: inicio plantao" style="text;html=1;strokeColor=none;fillColor=none;align=center;verticalAlign=middle;whiteSpace=wrap;rounded=0;" vertex="1" parent="-9V2bEK6rvMUXnRSOSfq-19">
          <mxGeometry x="10" y="140" width="60" height="30" as="geometry" />
        </mxCell>
        <mxCell id="-9V2bEK6rvMUXnRSOSfq-36" value="LocalTime: fim plantao" style="text;html=1;strokeColor=none;fillColor=none;align=center;verticalAlign=middle;whiteSpace=wrap;rounded=0;" vertex="1" parent="-9V2bEK6rvMUXnRSOSfq-19">
          <mxGeometry x="110" y="40" width="60" height="30" as="geometry" />
        </mxCell>
        <mxCell id="-9V2bEK6rvMUXnRSOSfq-37" value="DiasTrabalhados: LinkedList" style="text;html=1;strokeColor=none;fillColor=none;align=center;verticalAlign=middle;whiteSpace=wrap;rounded=0;" vertex="1" parent="-9V2bEK6rvMUXnRSOSfq-19">
          <mxGeometry x="120" y="85" width="60" height="30" as="geometry" />
        </mxCell>
        <mxCell id="-9V2bEK6rvMUXnRSOSfq-39" value="Gerar receita" style="text;html=1;strokeColor=none;fillColor=none;align=center;verticalAlign=middle;whiteSpace=wrap;rounded=0;" vertex="1" parent="-9V2bEK6rvMUXnRSOSfq-19">
          <mxGeometry x="125" y="115" width="50" height="40" as="geometry" />
        </mxCell>
        <mxCell id="-9V2bEK6rvMUXnRSOSfq-26" value="" style="endArrow=classic;html=1;rounded=0;entryX=0.75;entryY=0;entryDx=0;entryDy=0;exitX=1;exitY=1;exitDx=0;exitDy=0;" edge="1" parent="WIyWlLk6GJQsqaUBKTNV-1" source="-9V2bEK6rvMUXnRSOSfq-13" target="-9V2bEK6rvMUXnRSOSfq-19">
          <mxGeometry relative="1" as="geometry">
            <mxPoint x="440" y="700" as="sourcePoint" />
            <mxPoint x="600" y="700" as="targetPoint" />
          </mxGeometry>
        </mxCell>
        <mxCell id="-9V2bEK6rvMUXnRSOSfq-27" value="Tem varios" style="edgeLabel;resizable=0;html=1;align=center;verticalAlign=middle;" connectable="0" vertex="1" parent="-9V2bEK6rvMUXnRSOSfq-26">
          <mxGeometry relative="1" as="geometry" />
        </mxCell>
        <mxCell id="-9V2bEK6rvMUXnRSOSfq-29" value="0..*" style="edgeLabel;resizable=0;html=1;align=right;verticalAlign=bottom;" connectable="0" vertex="1" parent="-9V2bEK6rvMUXnRSOSfq-26">
          <mxGeometry x="1" relative="1" as="geometry">
            <mxPoint x="20" as="offset" />
          </mxGeometry>
        </mxCell>
        <mxCell id="-9V2bEK6rvMUXnRSOSfq-40" value="Receita" style="swimlane;whiteSpace=wrap;html=1;" vertex="1" parent="WIyWlLk6GJQsqaUBKTNV-1">
          <mxGeometry x="620" y="500" width="200" height="220" as="geometry" />
        </mxCell>
        <mxCell id="-9V2bEK6rvMUXnRSOSfq-41" value="-remedio: String" style="text;html=1;align=center;verticalAlign=middle;resizable=0;points=[];autosize=1;strokeColor=none;fillColor=none;" vertex="1" parent="-9V2bEK6rvMUXnRSOSfq-40">
          <mxGeometry x="25" y="33" width="110" height="30" as="geometry" />
        </mxCell>
        <mxCell id="-9V2bEK6rvMUXnRSOSfq-42" value="-dosagem:String" style="text;html=1;strokeColor=none;fillColor=none;align=center;verticalAlign=middle;whiteSpace=wrap;rounded=0;" vertex="1" parent="-9V2bEK6rvMUXnRSOSfq-40">
          <mxGeometry x="10" y="63" width="120" height="30" as="geometry" />
        </mxCell>
        <mxCell id="-9V2bEK6rvMUXnRSOSfq-44" value="-profissional: ProfissionalSaude" style="text;html=1;strokeColor=none;fillColor=none;align=center;verticalAlign=middle;whiteSpace=wrap;rounded=0;" vertex="1" parent="-9V2bEK6rvMUXnRSOSfq-40">
          <mxGeometry x="30" y="94" width="120" height="30" as="geometry" />
        </mxCell>
        <mxCell id="-9V2bEK6rvMUXnRSOSfq-45" value=";Listainterferencias: LinkedList: String" style="text;html=1;strokeColor=none;fillColor=none;align=center;verticalAlign=middle;whiteSpace=wrap;rounded=0;" vertex="1" parent="-9V2bEK6rvMUXnRSOSfq-40">
          <mxGeometry x="50" y="140" width="60" height="30" as="geometry" />
        </mxCell>
        <mxCell id="-9V2bEK6rvMUXnRSOSfq-47" value="" style="endArrow=none;dashed=1;html=1;dashPattern=1 3;strokeWidth=2;rounded=0;" edge="1" parent="WIyWlLk6GJQsqaUBKTNV-1" source="-9V2bEK6rvMUXnRSOSfq-19">
          <mxGeometry width="50" height="50" relative="1" as="geometry">
            <mxPoint x="660" y="320" as="sourcePoint" />
            <mxPoint x="710" y="270" as="targetPoint" />
          </mxGeometry>
        </mxCell>
        <mxCell id="-9V2bEK6rvMUXnRSOSfq-478" value="Vertical Container" style="swimlane;whiteSpace=wrap;html=1;" vertex="1" parent="WIyWlLk6GJQsqaUBKTNV-1">
          <mxGeometry x="600" y="1080" width="200" height="200" as="geometry" />
        </mxCell>
        <mxCell id="-9V2bEK6rvMUXnRSOSfq-479" value="Vertical Container" style="swimlane;whiteSpace=wrap;html=1;" vertex="1" parent="WIyWlLk6GJQsqaUBKTNV-1">
          <mxGeometry x="280" y="1090" width="200" height="200" as="geometry" />
        </mxCell>
        <mxCell id="-9V2bEK6rvMUXnRSOSfq-482" value="Extends" style="endArrow=block;endSize=16;endFill=0;html=1;rounded=0;entryX=0.5;entryY=1;entryDx=0;entryDy=0;exitX=0.75;exitY=0;exitDx=0;exitDy=0;" edge="1" parent="WIyWlLk6GJQsqaUBKTNV-1" source="-9V2bEK6rvMUXnRSOSfq-479" target="-9V2bEK6rvMUXnRSOSfq-19">
          <mxGeometry width="160" relative="1" as="geometry">
            <mxPoint x="420" y="1030" as="sourcePoint" />
            <mxPoint x="580" y="1030" as="targetPoint" />
            <Array as="points">
              <mxPoint x="510" y="1050" />
            </Array>
          </mxGeometry>
        </mxCell>
      </root>
    </mxGraphModel>
  </diagram>
</mxfile>
